<svg xmlns="http://www.w3.org/2000/svg" viewBox="0 0 240 40">
  <g transform="translate(4, 4)">
    <path d="M16 0C7.163 0 0 7.163 0 16s7.163 16 16 16 16-7.163 16-16S24.837 0 16 0zm0 4a12 12 0 0 1 12 12 12 12 0 0 1-12 12A12 12 0 0 1 4 16 12 12 0 0 1 16 4zm0 2a2 2 0 1 0 0 4 2 2 0 0 0 0-4zm-6 4a2 2 0 1 0 0 4 2 2 0 0 0 0-4zm12 0a2 2 0 1 0 0 4 2 2 0 0 0 0-4zm-12 8a2 2 0 1 0 0 4 2 2 0 0 0 0-4zm6 0a2 2 0 1 0 0 4 2 2 0 0 0 0-4zm6 0a2 2 0 1 0 0 4 2 2 0 0 0 0-4zM8 12h4v8H8zm8 0h4v8h-4z" fill="#e0e0e0"/>
  </g>
  <text x="44" y="27" font-family="system-ui, -apple-system, sans-serif" font-size="18" font-weight="600" fill="#e0e0e0">rust-template</text>
</svg>
